<?xml version="1.0" standalone="no"?>
<!DOCTYPE svg PUBLIC "-//W3C//DTD SVG 20010904//EN"
 "http://www.w3.org/TR/2001/REC-SVG-20010904/DTD/svg10.dtd">
<svg version="1.0" xmlns="http://www.w3.org/2000/svg"
 width="16.000000pt" height="16.000000pt" viewBox="0 0 16.000000 16.000000"
 preserveAspectRatio="xMidYMid meet">
<metadata>
Created by potrace 1.11, written by Peter Selinger 2001-2013
</metadata>
<g transform="translate(0.000000,16.000000) scale(0.002003,-0.002003)"
fill="#000000" stroke="none">
<path d="M3370 7399 c-258 -29 -539 -137 -748 -286 -110 -78 -278 -249 -346
-351 -60 -91 -127 -225 -159 -322 -49 -145 -62 -232 -62 -418 l0 -173 -25 -5
c-105 -23 -337 -94 -454 -140 -199 -79 -336 -151 -526 -279 -91 -60 -194 -129
-230 -152 -421 -269 -688 -828 -641 -1342 31 -343 157 -628 379 -863 191 -201
420 -325 719 -389 71 -16 148 -23 280 -26 l183 -5 40 -76 c165 -306 446 -525
784 -611 440 -113 942 25 1491 411 319 224 567 481 662 685 149 323 82 711
-158 913 -181 151 -446 213 -696 161 -56 -12 -108 -24 -116 -27 -11 -4 -15 16
-20 108 -7 139 -24 207 -81 323 -50 101 -133 200 -215 256 -28 19 -51 37 -51
40 0 4 71 43 158 87 529 269 1051 375 1557 317 360 -42 710 -184 1015 -413 77
-57 260 -229 260 -243 0 -4 -50 -42 -110 -84 -511 -353 -822 -742 -1202 -1500
-142 -282 -274 -529 -361 -670 -301 -492 -639 -780 -1162 -988 l-91 -36 -329
75 c-792 180 -1152 236 -1520 238 -173 1 -197 -1 -265 -22 -109 -35 -183 -77
-251 -146 -110 -112 -165 -266 -142 -401 40 -235 223 -381 518 -415 157 -19
782 1 1105 35 364 38 723 115 973 210 l68 25 132 -24 c137 -25 278 -46 457
-68 166 -20 686 -17 830 5 1133 176 1724 856 1889 2177 76 607 -8 1043 -280
1449 -38 57 -68 105 -67 106 17 16 214 128 297 169 317 159 634 254 974 291
42 5 57 10 57 22 0 12 -8 14 -42 9 -24 -3 -92 -10 -153 -16 -374 -37 -732
-142 -1081 -317 l-134 -67 -102 100 c-156 151 -262 233 -440 337 -238 140
-501 234 -808 289 -109 19 -161 22 -400 22 -236 0 -295 -3 -417 -22 -398 -62
-735 -170 -1120 -358 l-115 -56 -111 11 c-437 44 -927 -167 -1214 -523 -184
-228 -285 -492 -312 -811 -9 -115 -3 -216 14 -215 6 0 13 47 17 107 31 481
363 925 820 1097 99 37 348 88 348 72 0 -3 -35 -29 -77 -58 -241 -162 -414
-307 -538 -453 -257 -301 -385 -627 -390 -995 l-2 -155 -114 1 c-169 2 -312
35 -454 106 -395 196 -608 683 -509 1165 112 555 548 1031 1195 1306 129 55
330 120 340 110 3 -5 12 -26 19 -48 7 -22 30 -75 51 -118 141 -286 393 -413
614 -308 119 56 179 146 179 266 0 157 -105 281 -289 342 -70 23 -101 27 -253
31 l-173 4 7 82 c20 237 115 449 273 606 63 63 97 86 196 137 204 104 395 174
592 215 94 20 138 23 333 23 205 0 233 -2 310 -23 322 -89 467 -288 417 -575
-26 -147 -68 -221 -200 -353 -198 -197 -374 -271 -559 -234 -134 26 -228 92
-279 196 -28 56 -33 77 -33 142 0 64 5 88 28 140 16 34 46 77 66 96 49 44 38
67 -12 29 -96 -74 -151 -225 -129 -355 6 -38 23 -91 36 -118 82 -161 302 -271
510 -256 308 23 628 241 781 533 78 148 105 254 105 413 -1 489 -469 836
-1121 829 -63 -1 -149 -5 -190 -10z m-721 -1667 c122 -48 182 -117 189 -217 5
-76 -20 -117 -97 -157 -175 -92 -373 41 -457 306 -20 63 -22 81 -12 88 7 5 83
7 168 5 128 -3 164 -8 209 -25z m480 -1143 c71 -41 138 -112 170 -179 20 -43
27 -74 29 -145 11 -287 -171 -514 -685 -853 -203 -133 -484 -282 -535 -282
-22 0 -24 49 -7 185 40 324 215 634 538 955 153 152 391 350 421 350 8 0 39
-14 69 -31z m3395 -206 c230 -350 305 -731 240 -1227 -43 -333 -172 -811 -271
-1011 -72 -142 -246 -364 -378 -481 -298 -264 -638 -416 -1092 -490 -138 -22
-508 -30 -702 -14 -86 7 -159 14 -164 17 -4 2 41 41 100 86 60 44 169 142 243
216 289 291 472 602 766 1301 175 419 249 580 341 741 142 252 276 430 467
623 129 130 360 326 385 326 4 0 33 -39 65 -87z m-2349 -359 c164 -39 325
-159 385 -286 139 -297 17 -650 -310 -897 -210 -158 -567 -343 -834 -433 -427
-143 -803 -90 -1057 149 -62 59 -148 168 -138 177 2 2 60 25 127 50 159 59
365 162 533 267 74 46 142 82 152 81 11 -2 17 3 18 15 0 11 35 43 92 83 121
86 340 303 407 404 62 93 110 193 140 294 l22 72 52 15 c116 34 291 38 411 9z
m-2189 -2809 c247 -26 635 -93 612 -106 -20 -11 -432 -47 -678 -58 -118 -6
-254 -13 -302 -16 -98 -6 -205 8 -252 32 -17 10 -34 16 -39 15 -12 -3 3 51 23
78 22 33 67 58 122 70 57 12 336 4 514 -15z"/>
</g>
</svg>
