<svg id="Layer_8" data-name="Layer 8" xmlns="http://www.w3.org/2000/svg" viewBox="0 0 201.73 177.38"><defs><style>.cls-1{stroke:#000;stroke-miterlimit:10;stroke-width:0.7px;}</style></defs><title>emblem</title><path class="cls-1" d="M197.48,63.4c1.53-.21.82-0.17-0.88,0l-3.93.32c-1.49.17-3.06,0.41-4.46,0.61a79.41,79.41,0,0,0-18.87,5.86q-3.21,1.46-6.3,3.21a56.87,56.87,0,0,0-29.56-17.46c-11.78-2.79-24.11-1.75-35.6,1.44a98.76,98.76,0,0,0-16.68,6.4c-1.18.57-2.34,1.18-3.5,1.79L77,65.42A29.19,29.19,0,0,0,72.17,65a35.24,35.24,0,0,0-7.74.93,36.81,36.81,0,0,0-13.59,6.33,34.44,34.44,0,0,0-10,11.82,31.93,31.93,0,0,0-1.64,3.73L39.07,88q-0.23.63-.42,1.21h0a37,37,0,0,0-1.8,10,1.68,1.68,0,0,0,0,.59c0,0.91,0,1.78,0,2.59a7.86,7.86,0,0,0,.07.83c0.08,0.92.11,0.5,0.06-.55a36.07,36.07,0,0,1,.58-5A32.59,32.59,0,0,1,48.84,78.52a31.62,31.62,0,0,1,16.06-6.9c1-.12,2-0.18,3-0.21-0.69.46-1.39,0.91-2.08,1.39-2.26,1.57-4.24,2.89-6.29,4.44a51.38,51.38,0,0,0-6.62,5.83,52.34,52.34,0,0,0-4.36,5.4,38.55,38.55,0,0,0-3.43,6,35.87,35.87,0,0,0-3.21,19.17l-0.89.06a30.93,30.93,0,0,1-7.71-.62,24.87,24.87,0,0,1-7.09-2.59,23.74,23.74,0,0,1-10-10.88,28.83,28.83,0,0,1-2.53-14.89,36.67,36.67,0,0,1,4.83-14.78A45.28,45.28,0,0,1,29,57.72,60.67,60.67,0,0,1,43.21,49a57.92,57.92,0,0,1,10-3.48l0.11,0.37,0.14,0.47c0.08,0.24.14,0.49,0.22,0.73a16.68,16.68,0,0,0,.82,2c0.31,0.66.6,1.33,1,2a19.11,19.11,0,0,0,2.64,3.59,11.24,11.24,0,0,0,8.34,3.9A9.35,9.35,0,0,0,71,57.19a7.34,7.34,0,0,0,3.16-3.95,7.11,7.11,0,0,0-.43-5.09c-0.1-.21-0.22-0.41-0.34-0.61v0a9.2,9.2,0,0,0-2.89-3.14,13.54,13.54,0,0,0-5.08-2A27.55,27.55,0,0,0,60.58,42a38.18,38.18,0,0,0-4,.2c0-.15,0-0.29,0-0.44a24,24,0,0,1,1.73-9.59,25.92,25.92,0,0,1,5.12-7.93A18.45,18.45,0,0,1,64.94,23c0.54-.36,1-0.72,1.59-1,1.13-.64,2.32-1.27,3.83-2a60,60,0,0,1,5.86-2.46A44.27,44.27,0,0,1,86.54,15,42,42,0,0,1,97,15a20.51,20.51,0,0,1,9,3.27A10.72,10.72,0,0,1,110.48,26a15.42,15.42,0,0,1-2.5,10.3,13.51,13.51,0,0,1-1.09,1.19c-0.19.19-.38,0.39-0.59,0.63s-0.47.47-.73,0.78a20.88,20.88,0,0,1-7.3,5.39,13.4,13.4,0,0,1-4.31,1.06,11.94,11.94,0,0,1-4.39-.53,9.3,9.3,0,0,1-6.18-5.53,8.92,8.92,0,0,1,.9-7.79l-0.14.2,0.09-.16a9.89,9.89,0,0,0-.88,1.43l0-.08,0.12-.27c0.09-.18.18-0.36,0.28-0.54l0.13-.21c0.11-.19.23-0.37,0.36-0.55l0.11-.14a7.41,7.41,0,0,1,2-1.78,8.15,8.15,0,0,0-3.45,3.9,10,10,0,0,0-.32,6.87A10.43,10.43,0,0,0,86.8,45.5a14.13,14.13,0,0,0,6.31,2.23,17.12,17.12,0,0,0,6.31-.57A24.47,24.47,0,0,0,107,43.54a26.43,26.43,0,0,0,6.1-5.86,23.66,23.66,0,0,0,4.07-8.41,20,20,0,0,0,.58-5.42,17.44,17.44,0,0,0-1.3-6.08A18.67,18.67,0,0,0,111.8,11a24.54,24.54,0,0,0-6.67-4.35,33.74,33.74,0,0,0-7.3-2.26,43,43,0,0,0-7.42-.69A45.44,45.44,0,0,0,83,4.32a43.67,43.67,0,0,0-7.26,1.92A37.63,37.63,0,0,0,69.59,9.1l-0.2.11-0.48.27c-0.3.18-.59,0.37-0.88,0.56l-0.19.11-0.07.05A33.93,33.93,0,0,0,62.85,14c-0.24.22-.46,0.45-0.69,0.68l-0.21.2L61.83,15q-0.73.73-1.41,1.51l-0.21.24q-0.74.85-1.41,1.74h0a31.25,31.25,0,0,0-1.94,2.84,33.48,33.48,0,0,0-3.58,8.35,31.17,31.17,0,0,0-1.09,9.92v0.14q0.06,1,.19,2l0,0.3c0,0.26.06,0.52,0.1,0.78L51.59,43a70.45,70.45,0,0,0-8.5,2.38A72.74,72.74,0,0,0,34.37,49a48.28,48.28,0,0,0-7.54,4.55c-1.28,1-2.26,1.49-5.11,3.33a32.76,32.76,0,0,0-5.33,4.19,35.84,35.84,0,0,0-5.68,7c-0.13.23-.25,0.46-0.38,0.69s-0.2.3-.29,0.46A39.12,39.12,0,0,0,5.13,86c0,0.26,0,.53,0,0.79,0,0,0,.07,0,0.11q0,1.07,0,2.13h0a36.35,36.35,0,0,0,3.37,14.11A33.86,33.86,0,0,0,15.43,113l0,0q0.77,0.76,1.6,1.46l0.29,0.24c0.46,0.39.94,0.77,1.43,1.13L19,116l0.43,0.29c0.25,0.18.49,0.37,0.75,0.54l0.44,0.27,0.9,0.55c0.37,0.22.74,0.43,1.11,0.63l0.9,0.46c0.42,0.21.85,0.42,1.28,0.61l0.73,0.31c0.51,0.21,1,.42,1.54.61l0.54,0.19c0.34,0.12.67,0.25,1,.35L29.28,121l0.79,0.22,1.27,0.32c0.49,0.11,1,.21,1.47.31L33.4,122c1,0.18,2.06.34,3.1,0.45a47.26,47.26,0,0,0,7.85.12,32.56,32.56,0,0,0,3.83,6.38l0.94,1.17a8.81,8.81,0,0,0,1,1.11l2.13,2.08a32,32,0,0,0,4.84,3.4A17.78,17.78,0,0,0,59.7,138c0.91,0.37,1.8.78,2.72,1.11l2.81,0.79,0.7,0.19,0.72,0.11,1.43,0.22a35.58,35.58,0,0,0,5.74.34c0.95-.07,1.89-0.18,2.84-0.27l1.41-.15,1.37-.25c7.29-1.45,13.81-4.77,19.82-8.62a89.61,89.61,0,0,0,8.54-6.24,46.73,46.73,0,0,0,7.85-8.16,32.09,32.09,0,0,0,2-2.7,18.34,18.34,0,0,0,1.8-3.78,22.45,22.45,0,0,0,1.06-9.78,17.15,17.15,0,0,0-4.17-9.43,18.16,18.16,0,0,0-8.62-5.19,21.75,21.75,0,0,0-9.51-.44,27.77,27.77,0,0,0-4.52,1.16,21.55,21.55,0,0,0,.13-3.83s0-.06,0-0.1q0-.75-0.15-1.5A17.8,17.8,0,0,0,93,78.75l0-.14c0-.11-0.08-0.23-0.12-0.34a17.84,17.84,0,0,0-3.28-6L89.44,72c-0.22-.26-0.45-0.51-0.68-0.75l-0.07-.07,0,0-0.15-.14a18.83,18.83,0,0,0-3.86-2.94,82.44,82.44,0,0,1,21.55-8.89,61.6,61.6,0,0,1,25.28-1.06l0.5,0.09c0.8,0.15,1.59.33,2.39,0.52l1.12,0.29q1,0.26,1.93.55L138.57,60c0.72,0.24,1.44.49,2.16,0.77L141.36,61a53.38,53.38,0,0,1,14.05,8.26,47.84,47.84,0,0,1,5.52,5.36,76.26,76.26,0,0,0-8.46,6,77.68,77.68,0,0,0-11.53,11.61,94.38,94.38,0,0,0-8.86,13.54c-5.15,9.31-9.27,18.84-14.72,27.27A61.18,61.18,0,0,1,108,144.45a55,55,0,0,1-12.1,8.48,70.24,70.24,0,0,1-9,3.89c-3.85-.84-7.75-1.75-11.75-2.66-3.31-.75-6.68-1.5-10.14-2.2l-1.21-.24-1.71-.33-2-.37-1-.18-2.67-.44L56,150.34c-1.53-.23-3.07-0.46-4.63-0.65q-3.52-.44-7.09-0.68c-1.21-.06-2.35-0.13-3.61-0.17a27.71,27.71,0,0,0-4.27.18,16.34,16.34,0,0,0-5.11,1.49l-0.16.08-0.08,0,0,0-0.23.13-0.18.1-0.18.1-0.16.1-0.21.14a13.56,13.56,0,0,0-1.42,1,13,13,0,0,0-2.2,2.37,11.54,11.54,0,0,0-2.26,7,10.49,10.49,0,0,0,.25,2.11L24.43,164l0,0.13,0,0.07,0.16,0.5,0.07,0.2,0.13,0.4A11.79,11.79,0,0,0,26,167.48a10.72,10.72,0,0,0,1.3,1.57,12.4,12.4,0,0,0,2.9,2.17,15.88,15.88,0,0,0,2.74,1.14,22,22,0,0,0,4.77.87c1.43,0.13,3,.09,4,0.08l3.36,0c4.49-.08,9-0.19,13.64-0.49a124,124,0,0,0,21.38-3.06l0.58-.15c0.93-.23,1.87-0.47,2.8-0.74l1.42-.43c0.61-.18,1.22-0.36,1.82-0.56l0.14-.05,0.16-.05q1.57-.52,3.13-1.12h0l0.67-.26c2.11,0.42,4.24.81,6.37,1.17,9.08,1.49,18.45,2.29,27.85,1.19s18.65-4.13,26.54-9.72a44,44,0,0,0,10.18-10.18,48.66,48.66,0,0,0,3.75-6.11,57.78,57.78,0,0,0,2.91-6.5,83.64,83.64,0,0,0,3.84-13.61,106.17,106.17,0,0,0,1.9-14,53.14,53.14,0,0,0-1.72-18.12,44.32,44.32,0,0,0-7.81-15.11c0.84-.56,1.69-1.1,2.57-1.61,1.63-1,3.08-1.77,4.37-2.46l0.72-.39,0.35-.18c0.58-.29,1.14-0.55,1.68-0.8,2.22-1,4.49-2,6.71-2.76,1.77-.59,3.48-1.19,5.16-1.6,0.84-.22,1.64-0.46,2.44-0.64L191,64.4l0.93-.2c1.47-.26,2.9-0.48,4.22-0.62ZM56.92,44.83A29.66,29.66,0,0,1,64,44.64a12,12,0,0,1,4.84,1.47,6.77,6.77,0,0,1,3,3.61,4.25,4.25,0,0,1-.74,4.2,6.21,6.21,0,0,1-4.06,2,6,6,0,0,1-2.27-.19,7.93,7.93,0,0,1-2.14-1,11.44,11.44,0,0,1-3.32-3.51A18.31,18.31,0,0,1,56.92,44.83Zm103.32,96.09a55.48,55.48,0,0,1-6.18,6.8,44.51,44.51,0,0,1-9.52,6.57c-0.56.31-1.13,0.58-1.7,0.86a58.15,58.15,0,0,1-21.44,5.37,94.1,94.1,0,0,1-17.77-.7q1.52-1,3-2.08h0q1.5-1.11,2.95-2.33l0.09-.07q1.44-1.22,2.82-2.55c0.68-.65,1.33-1.32,2-2l0.62-.66,0.37-.43c0.28-.32.56-0.63,0.83-0.95l0.31-.38c0.28-.34.56-0.67,0.83-1l0.33-.42,0.77-1,0.29-.4,0.76-1,0.2-.29,0.81-1.17,0.05-.08,0.81-1.23,0.07-.11,0,0,0.21-.35a100.13,100.13,0,0,0,5.84-10.82c3.47-7.46,6.13-14.63,9.26-21.48A80.1,80.1,0,0,1,148.61,89.6c1.2-1.53,2.6-2.91,3.94-4.38s2.85-2.82,4.43-4.11,3.19-2.6,4.87-3.88l0.78-.54A39.79,39.79,0,0,1,170.22,93c1.71,8.7.63,17.66-1.68,27.61-0.92,3.81-1.73,6.41-2.35,8.36s-1.11,3.22-1.54,4.32a28.52,28.52,0,0,1-1.5,3.17c-0.31.58-.68,1.22-1.15,1.94S161,140,160.24,140.92ZM33.59,161.56s0-.06,0-0.1a2,2,0,0,1,.35-1.32,3.79,3.79,0,0,1,.6-0.75c0.12-.12.25-0.22,0.37-0.32L35,159l0.35-.21h0l0.05,0,0.12-.06,0.26-.12a5.48,5.48,0,0,1,.55-0.21,8.78,8.78,0,0,1,1.25-.3,35,35,0,0,1,6.28-.13,146.65,146.65,0,0,1,24.19,3.42l-1.44.21c-4.58.62-9.2,1-13.82,1.3q-3.47.22-6.95,0.37l-3.48.15-1.74.07c-0.59,0-1.05,0-1.58,0a14.59,14.59,0,0,1-2.86-.29,5,5,0,0,1-2-.8,1.66,1.66,0,0,1-.41-0.41s0,0,0,0,0,0-.06-0.12l-0.07-.2Zm82.54-55.8a19.61,19.61,0,0,1-2.29,5.48,24.54,24.54,0,0,1-3.76,4.58A47.56,47.56,0,0,1,99.67,123a84.71,84.71,0,0,1-13.17,6,41.48,41.48,0,0,1-9,2c-0.76.11-1.47,0.05-2.2,0.09a12.36,12.36,0,0,1-2.17,0l-2.15-.2-2.09-.45a22.58,22.58,0,0,1-7.61-3.6,17.1,17.1,0,0,1-1.62-1.32l-0.07-.07a21.77,21.77,0,0,1-3.9-4.95l0,0A69.85,69.85,0,0,0,71.89,113c1.56-1,3.05-1.94,4.53-3,0.08,0.22.17,0.44,0.26,0.66-0.1-.23-0.16-0.45-0.24-0.68,0.9-.63,1.8-1.26,2.7-1.92,0.67-.5,1.34-1,2-1.55l0.39-.32c0.44-.36.88-0.72,1.32-1.1,0.26-.22.51-0.47,0.77-0.7s0.65-.58,1-0.89,0.57-.58.86-0.87,0.53-.52.79-0.81l0.11-.12,0,0,0.33-.37,0.43-.49,0.43-.52L88,99.85l0.47-.62,0.31-.41c0.18-.25.36-0.5,0.53-0.76l0.22-.32c0.2-.3.39-0.61,0.59-0.93l0.13-.2c0.21-.35.41-0.71,0.61-1.08l0.06-.11q0.32-.59.61-1.22l0,0q0.29-.63.56-1.29v0h0l0-.06a24.75,24.75,0,0,0,1.21-4.06q0.67-.21,1.35-0.39a21.49,21.49,0,0,1,11-.2,15.28,15.28,0,0,1,8.4,5.44,13.21,13.21,0,0,1,2.4,6A16.88,16.88,0,0,1,116.13,105.76ZM54,101q0.35-1.12.79-2.23v0q0.43-1.11.94-2.2l0,0q0.51-1.09,1.09-2.15l0-.06q0.58-1.06,1.22-2.1l0-.05A50.5,50.5,0,0,1,62.64,86,80.22,80.22,0,0,1,77.17,73a14.8,14.8,0,0,1,3.55,2,9.37,9.37,0,0,1,3.6,6,13.6,13.6,0,0,1-1.19,7.58,22.39,22.39,0,0,1-5,6.82,64.94,64.94,0,0,1-7.32,5.88,83.12,83.12,0,0,1-14.35,8.55q-1.78.8-3.6,1.45a28.52,28.52,0,0,1,.57-8q0.27-1.15.63-2.28v0Z"/></svg>